<svg width="400" height="400" viewBox="0 0 400 400" fill="none" xmlns="http://www.w3.org/2000/svg">
<path d="M329.927 315.892C328.519 315.025 327.028 314.248 325.49 313.652C322.234 312.391 319.997 310.094 319.181 306.811C317.987 301.996 314.256 299.871 310.213 299.342C302.437 298.328 297.584 293.16 293.441 287.747C290.35 283.707 289.181 278.161 291.098 272.736C291.54 271.482 291.575 270.473 291.07 269.009C290.436 267.177 291.142 264.853 291.374 262.753C293.652 242.149 301.778 223.733 312.555 206.316C313.574 204.669 314.593 203.026 315.621 201.388C318.264 197.177 319.352 192.631 319.973 187.638C321.287 177.078 321.683 166.371 324.898 156.056C328.222 145.395 327.981 134.528 326.037 123.55C325.033 117.879 325.262 111.999 324.674 106.24C323.33 93.0283 320.243 80.2588 313.795 68.541C310.922 63.3201 307.567 58.3555 304.26 53.3857C302.898 51.3382 301.285 49.1751 298.188 50.3159C296.559 50.9161 294.391 55.063 294.524 57.3156C294.562 57.9536 294.879 58.5999 294.812 59.2146C294.671 60.5076 294.364 61.7821 294.118 63.0642C293.753 64.9844 293.273 66.8927 293.048 68.8279C292.839 70.6175 292.891 72.4409 292.845 74.2492C292.792 76.3599 292.638 78.4769 292.746 80.5793C292.923 84.0696 293.151 87.4143 291.406 90.7798C290.464 92.599 290.992 95.1302 290.569 97.2829C290.124 99.5542 289.286 101.745 288.706 103.991C287.831 107.363 286.868 110.725 286.236 114.145C285.133 120.097 284.432 126.127 283.235 132.059C281.674 139.807 279.747 147.481 278.074 155.208C277.357 158.514 276.945 161.886 276.271 165.203C276.039 166.346 275.386 167.398 275.006 168.518C274.353 170.447 273.753 172.393 273.162 174.341C273.058 174.683 273.208 175.123 273.062 175.433C271.146 179.486 269.189 183.517 267.261 187.562C266.213 189.76 265.19 191.972 264.176 194.184C263.986 194.598 263.929 195.074 263.734 195.486C259.648 204.089 255.292 212.579 251.524 221.319C247.366 230.967 244.55 240.996 243.312 251.549C242.049 262.304 239.94 272.966 237.933 283.62C237.316 286.892 235.896 290.03 234.683 293.166C233.901 295.19 231.033 296.27 228.798 295.748C216.958 292.984 205.077 289.996 192.869 290.208C185.559 290.334 178.288 292.156 170.98 293.065C148.867 295.811 126.759 298.587 104.625 301.15C89.0307 302.956 73.4042 303.293 57.8072 300.96C56.9895 300.837 56.1594 300.791 55.3309 300.768C55.0921 300.761 54.8472 300.955 54 301.317C55.1874 302.156 55.9119 303.014 56.7974 303.238C60.7102 304.22 64.6572 305.086 68.6167 305.868C71.9314 306.523 75.3523 306.741 78.6039 307.613C86.0872 309.625 93.5245 308.826 101.035 307.956C107.304 307.229 113.611 306.652 119.913 306.485C122.301 306.422 124.688 307.918 127.137 308.293C129.802 308.703 132.537 308.697 135.244 308.767C138.335 308.847 141.43 308.792 144.521 308.828C147.828 308.868 151.202 308.538 154.422 309.098C159.636 310.007 164.754 311.494 169.903 312.766C175.038 314.036 180.161 315.371 185.303 316.624C188.93 317.509 192.579 318.318 196.226 319.119C196.743 319.233 197.411 319.307 197.842 319.081C199.835 318.031 200.935 318.762 201.387 321.079C203.699 320.38 205.785 319.749 207.871 319.117C208.032 319.36 208.195 319.603 208.356 319.845C199.509 325.78 190.821 331.971 181.773 337.578C172.662 343.221 162.261 345.694 151.739 347.658C151.788 348.098 151.836 348.537 151.885 348.979C154.233 349.33 156.683 350.293 158.904 349.911C164.351 348.973 169.688 347.405 175.073 346.11C176.149 345.852 177.051 345.332 178.135 346.708C178.72 347.452 180.715 347.312 182.043 347.2C185.342 346.921 188.612 346.304 191.91 346.069C193.983 345.921 196.089 346.221 198.18 346.308C198.996 346.341 200.01 346.665 200.602 346.308C205.514 343.327 210.987 344.445 216.174 344.375C224.529 344.263 232.913 344.732 241.257 345.33C249.402 345.913 257.09 344.466 264.512 341.271C274.419 337.006 284.537 333.481 295.091 331.067C301.007 329.712 306.956 328.238 312.07 324.291C316.648 320.758 322.116 320.678 327.58 322.672C330.297 323.666 333.09 324.452 336.417 325.512C335.52 320.937 333.333 317.983 329.927 315.892Z" fill="black"/>
</svg>
