<svg width="127" height="73" fill="none" xmlns="http://www.w3.org/2000/svg"><path d="M45.398 50.054c-.18-.34-.36-.624-.48-.965-.841-1.932-.841-3.409-.54-5.283.24-1.364.18-2.046-.241-2.557-.48-.568-1.202-.625-2.223-.738h-.18c-.3-.057-.6-.057-.84-.057-2.343-.114-3.665-.057-4.265.795-.601.795-.18 1.988.66 3.693.42.852.6 1.704.721 2.329-1.021.057-2.222.511-3.664 1.08-2.943 1.135-6.968 2.726-11.893 1.306-5.827-1.648-10.692-6.022-13.335-8.408-1.261-1.136-1.802-1.647-2.223-1.76-.6-.171-1.381.226-1.801.454l-.24.113c-.301.227-.722.568-.902.966-.42 1.306-.48 3.75.54 6.476-.36-.17-.6-.227-.84-.284-.6-.057-1.261.398-1.802.909l-.18.17c-.3.285-.661.739-.661 1.193-.12 2.102.961 5.397 3.544 8.465h-.06c-.6.114-1.141.795-1.502 1.42v.227c-.18.398-.36.91-.3 1.364.6 2.329 3.063 5.68 7.208 8.01 2.523 1.42 6.367 2.783 11.653 2.783 2.342 0 4.985-.284 7.869-.965 6.847-1.591 13.214-6.193 15.797-11.59 1.622-3.18 1.682-6.362.18-9.146zM5.033 41.306s.06-.057.06-.114c.12.228.3.512.481.796 1.562 2.67 4.986 8.691 13.034 11.702-4.985-1.193-9.43-3.636-12.073-5.112-.18-.114-.36-.228-.54-.285-1.262-2.783-1.442-5.51-.962-6.987zM2.15 49.6s0-.114.12-.227c.18.17.48.511.781.795 2.523 2.67 8.47 8.976 19.342 9.6h1.02a15.31 15.31 0 0 0 3.244-.34c-.12.057-.3.057-.42.114-6.788 1.533-14.296-.17-18.32-1.08-.661-.17-1.202-.284-1.622-.34C3.23 55.11 2.03 51.587 2.15 49.6zm42.107 9.26c-2.463 5.056-8.47 9.487-15.017 10.964-16.698 3.806-24.507-5.34-25.468-9.09 0-.056 0-.113.06-.284.3.114.66.341 1.021.569 3.424 1.988 11.413 6.59 22.525 4.033 7.328-1.648 11.053-6.988 13.215-10.907.12-.228.06-.568-.24-.682-.24-.114-.601-.057-.721.227-2.042 3.693-5.646 8.806-12.554 10.396-10.692 2.443-18.38-2.045-21.684-3.92-.48-.284-.841-.51-1.141-.624.24-.341.48-.569.6-.569.3-.056 1.562.228 2.763.512 2.883.681 7.569 1.704 12.554 1.704 2.042 0 4.205-.17 6.247-.682 5.286-1.193 8.41-4.204 10.932-7.271a.52.52 0 0 0-.12-.739.592.592 0 0 0-.78.114c-.241.284-.541.625-.782.909-4.264 3.75-8.65 5.453-13.334 5.17-10.392-.569-16.158-6.647-18.621-9.26-.36-.398-.6-.625-.841-.852.3-.228.54-.341.66-.341.301.056 1.322.624 2.343 1.193 3.484 1.931 9.971 5.51 16.819 5.908h1.021c2.403 0 4.445-.455 6.247-1.193h.06c.06 0 .06-.057.12-.057 2.283-.909 4.085-2.159 5.647-3.181.54-.341 1.02-.682 1.441-.966.24-.17.3-.455.18-.682a.594.594 0 0 0-.72-.17c-.481.284-.962.625-1.502.965-1.562 1.023-3.364 2.273-5.646 3.125-2.944.852-5.827.909-8.59.114-9.13-2.557-12.854-9.09-14.476-11.873-.24-.398-.36-.682-.54-.91.3-.113.48-.17.6-.17.24.114 1.021.795 1.802 1.534 2.643 2.386 7.629 6.874 13.695 8.578a16.7 16.7 0 0 0 4.265.568c3.364 0 6.127-1.08 8.35-1.931 1.561-.625 2.883-1.136 3.784-.966h.18c.06 0 .06 0 .12-.057 0 0 .06 0 .06-.057.06 0 .06-.056.12-.056l.06-.057s.06-.057.06-.114 0-.057.06-.113v-.171c-.06-.682-.24-2.045-.84-3.295-.301-.625-1.082-2.215-.721-2.67.3-.454 1.922-.398 3.363-.34.24 0 .48 0 .721.056h.18c.781.057 1.322.17 1.502.341.18.227.18.795.06 1.761-.36 1.988-.36 3.693.6 5.851.12.341.301.682.481 1.023 1.322 2.783 1.262 5.624-.18 8.635z" fill="#333B41" stroke="#333B41" stroke-width=".7"/><path d="M42.696 57.894c-.24-.114-.6 0-.72.227-2.283 4.658-7.87 8.749-13.936 10.112-.3.057-.48.34-.42.625.06.227.3.397.54.397h.12c6.428-1.42 12.314-5.737 14.717-10.68.12-.227 0-.51-.3-.681zM68.626 1.008a15.018 15.018 0 0 0-8.984 2.633 15.113 15.113 0 0 0-5.7 7.451.842.842 0 0 1-.654.551 6.895 6.895 0 0 0-4.145 2.39 6.945 6.945 0 0 0 .1 9.001 6.894 6.894 0 0 0 4.197 2.296.838.838 0 0 1 .69.615 14.578 14.578 0 0 0 4.898 7.558 14.484 14.484 0 0 0 8.391 3.218 35.77 35.77 0 0 0-1.21 7.512l-5.06-.803a4.06 4.06 0 0 0-3.03.731 4.101 4.101 0 0 0-.9 5.71 4.07 4.07 0 0 0 2.657 1.636l6.873 1.09c.196 1.069.44 2.128.73 3.174a9.273 9.273 0 0 0-2.431 6.264v1.447a.844.844 0 0 1-.838.84h-.502a4.513 4.513 0 0 0-3.203 1.331 4.549 4.549 0 0 0-1.328 3.215v1.186a2.56 2.56 0 0 0 .746 1.804 2.54 2.54 0 0 0 1.797.745h32.203c4.329.001 8.609-.917 12.56-2.693a30.722 30.722 0 0 0 10.365-7.614 31.721 31.721 0 0 0 8.734-16.864 21.45 21.45 0 0 0-4.178-15.596 21.605 21.605 0 0 0-10.267-7.263 13.728 13.728 0 0 0-8.573.206 13.785 13.785 0 0 0-6.79 5.257 4.255 4.255 0 0 0 1.114 5.904 4.22 4.22 0 0 0 5.88-1.127 5.32 5.32 0 0 1 2.575-2.012 5.296 5.296 0 0 1 3.26-.123 13.14 13.14 0 0 1 6.096 4.338 12.941 12.941 0 0 1 2.515 9.16 23.23 23.23 0 0 1-6.525 12.287 22.24 22.24 0 0 1-12.413 7.216.242.242 0 0 1-.283-.293 32.164 32.164 0 0 0-1.213-18.821 28.065 28.065 0 0 0-5.708-10.212 27.933 27.933 0 0 0-9.366-6.98c.178-.468.331-.945.46-1.428a.841.841 0 0 1 .69-.616 6.893 6.893 0 0 0 4.196-2.296 6.944 6.944 0 0 0 .098-9.002 6.895 6.895 0 0 0-4.145-2.388.838.838 0 0 1-.654-.55 15.115 15.115 0 0 0-5.309-7.174 15.025 15.025 0 0 0-8.416-2.911zm-.944 1.106c2.964-.096 5.881.759 8.328 2.44a14.004 14.004 0 0 1 5.283 6.908 1.952 1.952 0 0 0 1.511 1.275 5.79 5.79 0 0 1 3.48 2.005 5.833 5.833 0 0 1-.081 7.558 5.79 5.79 0 0 1-3.522 1.93 1.94 1.94 0 0 0-1.597 1.425 13.486 13.486 0 0 1-2.067 4.376 9.877 9.877 0 0 0-2.486-7.056.246.246 0 0 1 .06-.348 7.22 7.22 0 0 0 1.15-9.682 7.168 7.168 0 0 0-4.378-2.84 7.147 7.147 0 0 0-5.138.888 1.43 1.43 0 0 1-1.48 0h-.015a7.147 7.147 0 0 0-5.134-.88 7.17 7.17 0 0 0-4.372 2.84 7.22 7.22 0 0 0 1.143 9.674.241.241 0 0 1 .054.268.242.242 0 0 1-.054.08 9.869 9.869 0 0 0-2.359 4.946 13.495 13.495 0 0 1-.832-2.266 1.953 1.953 0 0 0-1.593-1.425 5.789 5.789 0 0 1-3.522-1.93 5.831 5.831 0 0 1-.081-7.558 5.791 5.791 0 0 1 3.48-2.005 1.94 1.94 0 0 0 1.507-1.275 14.007 14.007 0 0 1 4.918-6.649 13.92 13.92 0 0 1 7.798-2.7zm-4.867 8.956a6.049 6.049 0 0 1 3.34.87 2.533 2.533 0 0 0 2.62 0 6.045 6.045 0 0 1 4.341-.742 6.063 6.063 0 0 1 3.698 2.402 6.107 6.107 0 0 1-.97 8.183 1.353 1.353 0 0 0-.39 1.468c.059.17.15.326.27.46a8.777 8.777 0 0 1 1.965 7.914 13.405 13.405 0 0 1-4.965 3.194 13.362 13.362 0 0 1-11.454-1.097 13.434 13.434 0 0 1-4.274-4.08 8.764 8.764 0 0 1 2.216-5.931 1.353 1.353 0 0 0 .198-1.508 1.354 1.354 0 0 0-.328-.42 6.112 6.112 0 0 1-1.786-6.64 6.087 6.087 0 0 1 2.13-2.895 6.05 6.05 0 0 1 3.387-1.181l.002.003zm44.245 12.026c1.27-.012 2.533.169 3.75.535a20.5 20.5 0 0 1 9.718 6.885 20.343 20.343 0 0 1 3.965 14.75 30.619 30.619 0 0 1-8.448 16.268 29.63 29.63 0 0 1-9.998 7.357 29.516 29.516 0 0 1-12.121 2.604H61.723a1.43 1.43 0 0 1-1.328-.889 1.447 1.447 0 0 1-.11-.552v-1.186a3.447 3.447 0 0 1 1.004-2.43 3.423 3.423 0 0 1 2.422-1.005h.501a1.939 1.939 0 0 0 1.798-1.204 1.96 1.96 0 0 0 .149-.747v-1.447a8.158 8.158 0 0 1 2.44-5.635 8.094 8.094 0 0 1 5.668-2.318c2.118 0 4.153.832 5.668 2.318a8.158 8.158 0 0 1 2.44 5.635v2.476a.556.556 0 0 0 .553.539.552.552 0 0 0 .553-.539v-2.476c0-1.62-.424-3.213-1.229-4.617a9.234 9.234 0 0 0-3.36-3.386 6.503 6.503 0 0 0 4.102-3.017 6.558 6.558 0 0 0 .693-5.057 32.658 32.658 0 0 0-2.438-6.34.554.554 0 1 0-.985.508 31.543 31.543 0 0 1 2.353 6.122 5.454 5.454 0 0 1-1.197 5.046 5.408 5.408 0 0 1-4.867 1.737l-16.5-2.62a2.965 2.965 0 0 1-1.928-1.194 2.988 2.988 0 0 1 .654-4.152 2.958 2.958 0 0 1 2.201-.538l12.703 2.018a.551.551 0 0 0 .627-.463.556.556 0 0 0-.456-.633l-6.543-1.04c.129-2.597.55-5.172 1.254-7.675a14.476 14.476 0 0 0 7.528-2.37 14.557 14.557 0 0 0 5.181-5.97 26.828 26.828 0 0 1 8.991 6.715 26.954 26.954 0 0 1 5.474 9.817 31.05 31.05 0 0 1 1.18 18.202 1.357 1.357 0 0 0 .909 1.606c.215.068.445.08.666.036a23.347 23.347 0 0 0 13.005-7.544 24.347 24.347 0 0 0 6.81-12.887 14.055 14.055 0 0 0-2.731-9.998 14.245 14.245 0 0 0-6.645-4.724 6.398 6.398 0 0 0-3.951.138 6.425 6.425 0 0 0-3.122 2.434 3.136 3.136 0 0 1-2.001 1.318 3.114 3.114 0 0 1-2.343-.489 3.132 3.132 0 0 1-1.312-2.008 3.15 3.15 0 0 1 .487-2.352 12.69 12.69 0 0 1 4.503-4.061 12.636 12.636 0 0 1 5.866-1.502zM67.914 52.782l3.299.523a9.205 9.205 0 0 0-2.816 1.6 34.588 34.588 0 0 1-.48-2.123h-.003z" fill="#333B41" stroke="#333B41" stroke-width=".7"/><path d="M72.068 14.63a2.34 2.34 0 0 0-1.64.713 2.358 2.358 0 0 0-.662 1.666c0 .624.247 1.222.687 1.664a2.34 2.34 0 0 0 3.316 0c.44-.442.686-1.04.686-1.664a2.363 2.363 0 0 0-.693-1.696 2.344 2.344 0 0 0-1.694-.682zm.02 1.123a1.233 1.233 0 0 1 1.17.77c.063.154.095.319.093.486a1.248 1.248 0 0 1-.765 1.15 1.236 1.236 0 0 1-1.62-.674 1.252 1.252 0 0 1-.095-.476 1.237 1.237 0 0 1 1.216-1.256zM62.785 14.63a2.34 2.34 0 0 0-1.639.713 2.358 2.358 0 0 0-.663 1.665 2.361 2.361 0 0 0 .662 1.707 2.342 2.342 0 0 0 2.593.528 2.342 2.342 0 0 0 1.272-1.314c.114-.293.168-.606.16-.92A2.36 2.36 0 0 0 63.7 14.8a2.336 2.336 0 0 0-.915-.17zm.02 1.122a1.234 1.234 0 0 1 1.167.771c.063.154.094.32.093.485a1.25 1.25 0 0 1-.757 1.178 1.235 1.235 0 0 1-1.635-.692c-.06-.155-.089-.32-.085-.486a1.246 1.246 0 0 1 .35-.879c.228-.235.54-.37.866-.377zM63.498 28.826a4.865 4.865 0 0 0 3.97 2.065 4.867 4.867 0 0 0 3.97-2.064.557.557 0 0 0-.138-.768.551.551 0 0 0-.766.127 3.759 3.759 0 0 1-3.066 1.595 3.742 3.742 0 0 1-3.067-1.595.553.553 0 0 0-.903.64z" fill="#333B41" stroke="#333B41" stroke-width=".7"/></svg>